<?xml version="1.0" encoding="UTF-8"?>
<svg version="1.1" xmlns="http://www.w3.org/2000/svg" width="1024" height="1024">
<path d="M0 0 C337.92 0 675.84 0 1024 0 C1024 337.92 1024 675.84 1024 1024 C686.08 1024 348.16 1024 0 1024 C0 686.08 0 348.16 0 0 Z " fill="#FEFDF9" transform="translate(0,0)"/>
<path d="M0 0 C7.1101282 4.38396506 10.37213665 12.69304163 12.44921875 20.45703125 C14.32279465 29.59071375 13.52666943 39.22363885 12.26171875 48.39453125 C19.25327807 47.12717911 24.91342394 44.91488423 31.19921875 41.64453125 C32.07368652 41.19932129 32.9481543 40.75411133 33.84912109 40.29541016 C39.23031636 37.53008763 44.49248032 34.63379159 49.58203125 31.35546875 C51.26171875 30.39453125 51.26171875 30.39453125 53.26171875 30.39453125 C53.51179688 29.83765625 53.761875 29.28078125 54.01953125 28.70703125 C55.47058389 26.00570056 57.20996127 23.77934806 59.13671875 21.39453125 C59.81476563 20.54890625 60.4928125 19.70328125 61.19140625 18.83203125 C63.12695491 16.5531966 65.04310938 14.39963428 67.26171875 12.39453125 C67.92171875 12.39453125 68.58171875 12.39453125 69.26171875 12.39453125 C69.26171875 11.73453125 69.26171875 11.07453125 69.26171875 10.39453125 C71.2734375 8.95703125 71.2734375 8.95703125 73.94921875 7.39453125 C74.81933594 6.87890625 75.68945312 6.36328125 76.5859375 5.83203125 C83.52177396 2.10591765 89.43458771 1.62243448 97.26171875 2.39453125 C101.5305017 3.6921233 103.91467291 5.9584993 106.69921875 9.45703125 C108.26171875 12.39453125 108.26171875 12.39453125 108.26171875 15.39453125 C109.43734375 15.73484375 109.43734375 15.73484375 110.63671875 16.08203125 C113.26171875 17.39453125 113.26171875 17.39453125 114.69921875 19.39453125 C115.99921332 26.32783563 112.87650797 34.04920779 111.05322266 40.73901367 C107.45848791 53.93486135 105.13595352 66.37844842 105.01171875 80.08203125 C105.00221191 80.95690186 104.99270508 81.83177246 104.98291016 82.7331543 C104.98726074 83.55340088 104.99161133 84.37364746 104.99609375 85.21875 C104.99947754 86.3183606 104.99947754 86.3183606 105.00292969 87.44018555 C105.15834654 89.71687161 105.15834654 89.71687161 107.26171875 92.39453125 C114.25996365 92.24873448 117.47213841 89.26468397 122.26171875 84.39453125 C122.96167969 83.69328125 123.66164063 82.99203125 124.3828125 82.26953125 C141.74406731 63.94892011 153.26844134 40.73279726 161.37109375 17.08398438 C165.68191186 4.756096 165.68191186 4.756096 170.51171875 2.20703125 C174.74682566 2.49578854 178.21842145 4.45078106 181.26171875 7.39453125 C182.75737457 11.8457341 181.76952864 14.68823045 180.171875 19.0078125 C179.9484996 19.62222702 179.72512421 20.23664154 179.49497986 20.86967468 C178.78293824 22.81993215 178.0539217 24.763322 177.32421875 26.70703125 C176.83675422 28.03278583 176.35041351 29.35895421 175.86523438 30.68554688 C174.67703749 33.92676798 173.47354004 37.16205736 172.26171875 40.39453125 C174.54336617 38.11288383 176.69594773 35.700895 178.88671875 33.33203125 C179.42997803 32.74583008 179.9732373 32.15962891 180.53295898 31.55566406 C184.07940076 27.71601878 187.53081463 23.81669502 190.859375 19.78515625 C192.26171875 18.39453125 192.26171875 18.39453125 195.26171875 17.39453125 C195.59171875 16.40453125 195.92171875 15.41453125 196.26171875 14.39453125 C198.42176206 12.75031918 200.53958176 11.28030682 202.82421875 9.83203125 C203.42041016 9.43306641 204.01660156 9.03410156 204.63085938 8.62304688 C211.00018204 4.53384615 217.43941123 2.66786151 225.02734375 3.79296875 C231.43134999 5.51712428 236.78045239 9.78238299 240.26171875 15.39453125 C245.93142082 25.45128148 245.32927633 35.93026524 242.69921875 46.89453125 C239.10223884 59.06115803 233.14297859 69.5154271 225.26171875 79.39453125 C224.70871094 80.1009375 224.15570313 80.80734375 223.5859375 81.53515625 C213.11590582 94.22913261 196.68634492 106.21975144 180.26171875 109.39453125 C171.63923631 110.09075654 164.66076044 109.26763985 157.76171875 103.83203125 C156.93671875 103.02765625 156.11171875 102.22328125 155.26171875 101.39453125 C155.26171875 100.73453125 155.26171875 100.07453125 155.26171875 99.39453125 C154.60171875 99.39453125 153.94171875 99.39453125 153.26171875 99.39453125 C153.09192505 100.31419678 153.09192505 100.31419678 152.91870117 101.25244141 C151.77940373 107.2077306 150.31146814 112.96425176 148.57421875 118.76953125 C143.83896646 134.98162546 139.7336857 151.39267299 136.13671875 167.89453125 C134.7242198 174.36930524 133.2541201 180.82730016 131.69921875 187.26953125 C131.50118652 188.12095703 131.3031543 188.97238281 131.09912109 189.84960938 C129.17269885 197.70801227 129.17269885 197.70801227 126.26171875 200.39453125 C123.26311287 201.52321998 120.4423413 201.70646621 117.26171875 201.39453125 C114.19921875 199.45703125 114.19921875 199.45703125 112.26171875 196.39453125 C111.84050401 190.42094038 112.78261578 185.53795513 114.44921875 179.83203125 C116.48781155 172.5008396 118.24739769 165.15107913 119.82421875 157.70703125 C122.48943709 145.21110647 125.41027882 132.90198684 129.26953125 120.7109375 C130.34654396 117.11100131 131.25638733 113.4835086 132.13671875 109.83203125 C134.45426694 100.23823834 137.36277302 90.82576802 140.26171875 81.39453125 C139.5346875 82.44640625 139.5346875 82.44640625 138.79296875 83.51953125 C131.94302956 93.2148298 123.97140756 103.49130165 112.26171875 107.39453125 C107.42455163 107.78390074 102.8639086 108.04222502 98.32421875 106.20703125 C92.23931908 100.85969518 88.68409024 94.2033392 88.08984375 86.03076172 C87.92158767 80.47936261 88.0547225 74.94318063 88.26171875 69.39453125 C87.52308594 70.4103125 86.78445313 71.42609375 86.0234375 72.47265625 C77.86356783 83.58829336 69.41367756 95.06982961 58.26171875 103.39453125 C57.34519531 104.10222656 57.34519531 104.10222656 56.41015625 104.82421875 C51.36855553 108.37945113 46.47223624 109.93548085 40.26171875 109.39453125 C34.91673264 106.77062898 32.16416418 103.76938764 30.07421875 98.26953125 C26.55233759 81.47286726 33.43961769 65.44741425 40.26171875 50.39453125 C39.67269775 50.68175049 39.08367676 50.96896973 38.47680664 51.26489258 C35.76201662 52.58465973 33.04317807 53.89587649 30.32421875 55.20703125 C29.39802734 55.65884766 28.47183594 56.11066406 27.51757812 56.57617188 C23.13647925 58.68217379 19.07678702 60.48767977 14.34765625 61.63671875 C11.68285027 62.48149813 10.55014039 63.00288716 8.87963867 65.27124023 C7.69775427 67.71038234 6.74355678 70.15757287 5.82421875 72.70703125 C2.06445826 82.01591662 -2.40055671 89.63188206 -8.73828125 97.39453125 C-9.3209375 98.10867188 -9.90359375 98.8228125 -10.50390625 99.55859375 C-16.00425915 105.61966223 -25.03663519 111.94935768 -33.33984375 112.59765625 C-42.89939806 112.74586639 -50.17925532 111.63981434 -57.3046875 104.92578125 C-64.12015503 97.64604482 -64.30887704 88.0752548 -64.05078125 78.6171875 C-63.05362194 60.47304283 -53.91156022 44.83107281 -43.73828125 30.39453125 C-41.66557011 27.28546454 -41.21572495 25.37877112 -40.48828125 21.76953125 C-38.1227958 12.02514341 -33.2715915 5.60469328 -24.73828125 0.39453125 C-16.55444142 -4.15204644 -8.43044747 -3.74539503 0 0 Z " fill="#151E21" transform="translate(187.73828125,475.60546875)"/>
<path d="M0 0 C4.87445459 5.0061966 5.27587634 9.27952714 5.20117188 15.9765625 C4.87627883 20.85942107 3.66720793 25.33166708 2.25 30 C1.94489502 31.02182373 1.63979004 32.04364746 1.32543945 33.09643555 C-7.78762761 62.24810738 -23.28504824 91.94866777 -41.03100586 116.83447266 C-44.68729311 122.13897688 -47.791891 127.22515613 -50.01171875 133.3203125 C-50.2643045 134.00488525 -50.51689026 134.68945801 -50.77713013 135.39477539 C-53.64542144 143.43230374 -55.52388121 151.68161334 -57.375 160 C-57.73205777 161.56533607 -58.09012691 163.1304418 -58.44921875 164.6953125 C-59.31108723 168.4610054 -60.15946901 172.2294897 -61 176 C-60.72961914 175.50822266 -60.45923828 175.01644531 -60.18066406 174.50976562 C-53.9513819 163.26259565 -47.28152362 152.75764395 -39.30908203 142.66748047 C-38.19242386 141.24510537 -37.10652353 139.79867223 -36.02734375 138.34765625 C-31.75868603 132.7092754 -26.92279181 127.62736047 -22 122.5625 C-21.33516602 121.86318359 -20.67033203 121.16386719 -19.98535156 120.44335938 C-15.60514199 116.02652237 -12.06499576 113.56047287 -6 112 C-3.05222337 112.54551675 -0.54115465 113.39060206 2 115 C7.25922854 123.13548751 3.5764868 136.35765517 2.03125 145.2734375 C1.8314856 146.48141998 1.63172119 147.68940247 1.42590332 148.93399048 C0.79376493 152.74937954 0.14793786 156.56226501 -0.5 160.375 C-1.14621568 164.2094058 -1.78932758 168.04426118 -2.42590332 171.88027954 C-2.82053443 174.255288 -3.22089388 176.6293539 -3.62780762 179.00228882 C-5.60595393 188.13402941 -5.60595393 188.13402941 -4 197 C1.24874115 196.08263152 4.23052819 192.5343121 8 189 C8.63035156 188.43410156 9.26070312 187.86820313 9.91015625 187.28515625 C24.98363024 173.14023302 34.66842763 154.76079662 41.5 135.5625 C42.99589023 131.37351367 44.49605241 127.1860997 46 123 C46.29221436 122.17612793 46.58442871 121.35225586 46.88549805 120.50341797 C48.79339547 115.22797741 48.79339547 115.22797741 50.8125 113 C53.81221021 111.6287039 55.73231936 111.53318848 59 112 C61.875 114 61.875 114 64 116 C62.67200331 124.04229045 60.34732619 131.72575701 57.91696167 139.48956299 C54.48830762 150.46721746 51.21222046 161.46072664 48.4375 172.625 C48.19870117 173.58229004 47.95990234 174.53958008 47.71386719 175.52587891 C46.10705958 182.14827302 44.84370882 188.59074398 44.9375 195.4375 C44.94652344 196.30246094 44.95554687 197.16742187 44.96484375 198.05859375 C44.98224609 199.01958984 44.98224609 199.01958984 45 200 C45.99 200.33 46.98 200.66 48 201 C50.68255514 199.51865103 50.68255514 199.51865103 53.4375 197.375 C54.38496094 196.68148437 55.33242188 195.98796875 56.30859375 195.2734375 C58.94229613 193.0487426 60.85860783 190.68262316 63 188 C63.66 188 64.32 188 65 188 C65.24105469 187.44570313 65.48210937 186.89140625 65.73046875 186.3203125 C67.27916315 183.48977565 69.19292572 181.31025556 71.3125 178.875 C75.74077276 173.68397444 79.82086393 168.28249773 83.8125 162.75 C84.35108643 162.0060498 84.88967285 161.26209961 85.44458008 160.49560547 C86.98509038 158.34495662 88.49622656 156.17644759 90 154 C90.43618652 153.39478516 90.87237305 152.78957031 91.32177734 152.16601562 C98.26919385 141.97105433 100.97621229 129.09758058 104.3125 117.375 C104.70564288 116.01076272 105.09929024 114.64667074 105.4934082 113.28271484 C107.3242572 106.93340922 109.12385924 100.57711006 110.8671875 94.203125 C116.22090772 74.76302435 122.69962434 55.75829678 129.35058594 36.73046875 C130.61207067 33.12029504 131.85724097 29.50493432 133.09208679 25.88557434 C134.07118847 23.02404307 135.067571 20.16855953 136.0625 17.3125 C136.56221313 15.83680542 136.56221313 15.83680542 137.07202148 14.33129883 C138.97161574 8.97054271 140.83251676 4.94273453 145 1 C148.12129508 -0.04221325 150.81466043 0.25253765 154 1 C157.125 2.9375 157.125 2.9375 159 6 C159.24587876 12.47176873 157.03288042 18.64698781 154.90234375 24.66015625 C154.59255585 25.55874359 154.28276794 26.45733093 153.96359253 27.38314819 C152.96326726 30.2792439 151.95031281 33.17075078 150.9375 36.0625 C150.24136572 38.07328038 149.54630235 40.08443183 148.85229492 42.09594727 C147.49917792 46.01606043 146.14244257 49.93488368 144.78222656 53.85253906 C141.79523082 62.46582954 138.90924995 71.11153944 136.06347656 79.77246094 C135.27509571 82.16511359 134.48272939 84.55624305 133.68652344 86.94628906 C125.75257272 110.77900333 118.63218893 134.77353872 112 159 C112.50281494 158.09668945 113.00562988 157.19337891 113.52368164 156.26269531 C117.50469918 149.16704253 121.59921452 142.30565482 126.4375 135.75 C126.99606689 134.98695557 127.55463379 134.22391113 128.13012695 133.43774414 C137.27726371 121.08417757 149.16149681 105.4844707 165 102 C169.84994298 101.84242063 173.17202594 102.5093487 177.375 105 C181.89786234 110.16898553 183.31639172 115.34776448 183.125 122.1875 C181.13035246 137.33833346 170.33683192 149.21751661 158.671875 158.18359375 C151.36012324 163.15430218 143.43453676 166.46963897 135 169 C138.76672355 181.09562781 144.40833447 192.56896115 155.875 198.8125 C160.934665 201.17417524 164.68208105 202.0798318 170.1484375 200.30078125 C178.66333769 196.85704175 184.86423083 191.57972833 190.65234375 184.5390625 C191.09707031 184.03117188 191.54179688 183.52328125 192 183 C192.33 183 192.66 183 193 183 C194.04073853 197.83465391 194.04073853 197.83465391 191.93359375 202.21875 C190.05596551 203.91285067 188.28275201 204.89462955 186 206 C184.85273437 206.61230469 183.70546875 207.22460938 182.5234375 207.85546875 C172.55259092 213.08348225 163.48640886 216.18092798 152.06640625 213.24609375 C147.31227259 211.40088206 143.07739383 209.08069756 139 206 C138.45988281 205.60425781 137.91976563 205.20851563 137.36328125 204.80078125 C127.18196601 196.81588458 120.19623748 184.71505909 118 172 C114.27025325 176.21917053 111.98408816 180.69466513 109.625 185.75 C109.2336084 186.57822266 108.8422168 187.40644531 108.43896484 188.25976562 C105.50882476 194.58934954 103.05242423 201.00915854 100.93994141 207.65527344 C98.84670146 214.09045521 98.84670146 214.09045521 96 216 C91.2388756 216.5375463 89.12020305 216.71502323 85.0625 214.125 C83 212 83 212 82 210 C82.46796238 201.90850504 84.54145853 194.26153184 86.5625 186.4375 C86.89573417 185.12969779 87.22842063 183.82175589 87.56054688 182.51367188 C88.3683396 179.34103669 89.18161755 176.1699169 90 173 C89.63350342 173.51272461 89.26700684 174.02544922 88.8894043 174.55371094 C62.46062354 211.37509133 62.46062354 211.37509133 46.5625 216 C41.84527785 216 38.72575754 214.89781142 35 212 C31.33664565 207.41402307 28.86687965 203.09797882 28.90234375 197.2109375 C28.90556641 196.26992188 28.90878906 195.32890625 28.91210938 194.359375 C28.92048828 193.37453125 28.92886719 192.3896875 28.9375 191.375 C28.94201172 190.38242187 28.94652344 189.38984375 28.95117188 188.3671875 C28.96297855 185.9113984 28.979446 183.45572896 29 181 C28.45472656 181.75023437 27.90945313 182.50046875 27.34765625 183.2734375 C8.60161651 208.71678032 8.60161651 208.71678032 -5.1015625 211.66796875 C-9.60439303 211.89250343 -12.18326794 211.52747279 -16 209.0625 C-19.9396385 203.02992855 -21.58430815 196.37999675 -21.5625 189.1875 C-21.5632251 188.03809937 -21.5632251 188.03809937 -21.56396484 186.86547852 C-21.08638049 168.5712489 -16.67751053 149.86984488 -13 132 C-14.13020908 133.13020908 -15.25968886 134.26115189 -16.38671875 135.39453125 C-17.52496277 136.52726319 -18.67454531 137.64865658 -19.83203125 138.76171875 C-32.63330822 151.20950878 -43.15008485 166.53499676 -52 182 C-52.76387815 183.29790468 -53.52968322 184.59467624 -54.296875 185.890625 C-59.38191255 194.47020605 -59.38191255 194.47020605 -64.31640625 203.13671875 C-64.85515381 204.10013184 -64.85515381 204.10013184 -65.40478516 205.08300781 C-66.37872567 206.8319563 -67.34394472 208.58575334 -68.30859375 210.33984375 C-70 213 -70 213 -73 215 C-76.86362386 215.42929154 -79.35065407 215.27631742 -82.9375 213.75 C-86.29747964 209.27002714 -85.4029662 204.42888167 -85 199 C-84.21334702 194.03031894 -83.13557659 189.15037103 -82 184.25 C-81.71382812 182.96867188 -81.42765625 181.68734375 -81.1328125 180.3671875 C-80.43315586 177.24205449 -79.72207174 174.12001564 -79 171 C-79.78761719 172.00417969 -80.57523438 173.00835938 -81.38671875 174.04296875 C-111.30559701 211.77665245 -111.30559701 211.77665245 -132 216 C-139.97381301 216.74499859 -147.06346993 216.27232648 -154 212 C-159.86783237 206.99573542 -163.42224271 200.98789695 -164.31616211 193.27050781 C-164.47593849 190.17314681 -164.51880934 187.10142569 -164.5 184 C-164.49355469 182.89148682 -164.48710938 181.78297363 -164.48046875 180.64086914 C-164.00377295 159.08763285 -152.26656787 136.67797103 -139 120 C-138.34 120 -137.68 120 -137 120 C-136.73316406 119.401875 -136.46632813 118.80375 -136.19140625 118.1875 C-133.12108689 112.55019232 -127.19989954 109.05509113 -121.39453125 106.69140625 C-115.75977608 105.06440517 -110.75820694 105.48118484 -105.1875 107.125 C-99.8792447 110.24750312 -96.4973789 114.46519854 -94.50390625 120.3203125 C-93.79091844 124.11186008 -93.67279694 127.83555697 -93.625 131.6875 C-93.61106201 132.42460205 -93.59712402 133.1617041 -93.58276367 133.92114258 C-93.62214492 138.43157426 -94.13405044 141.4601098 -97 145 C-99.6875 145.8125 -99.6875 145.8125 -102 146 C-105.45259804 141.2057674 -105.71608006 136.47682017 -106.171875 130.79492188 C-106.57075314 126.71025627 -106.98259934 123.90727655 -110 121 C-112.78106497 120.07880436 -112.78106497 120.07880436 -116 121 C-124.55720275 126.70480183 -129.29339237 135.00269196 -133.5 144.125 C-133.88945801 144.96393799 -134.27891602 145.80287598 -134.68017578 146.66723633 C-141.8853184 162.33744543 -149.12571671 180.05449468 -145.1875 197.625 C-144.5996875 198.800625 -144.5996875 198.800625 -144 200 C-137.32380529 202.22539824 -131.08689022 201.32698994 -124.72265625 198.50390625 C-110.13676089 190.44713478 -97.84474112 177.23275113 -88 164 C-87.24904053 163.02305176 -87.24904053 163.02305176 -86.48291016 162.02636719 C-79.40229873 152.80615736 -73.25138787 144.30539828 -70 133 C-69.78891602 132.27570801 -69.57783203 131.55141602 -69.36035156 130.80517578 C-68.36828512 127.39277334 -67.390862 123.97664072 -66.43310547 120.55444336 C-58.53977464 92.37708796 -48.67836358 64.82434757 -37 38 C-36.64550781 37.17967285 -36.29101562 36.3593457 -35.92578125 35.51416016 C-29.88610917 21.66167472 -22.91541781 6.46047979 -8.42578125 -0.1796875 C-5.15730415 -1.28496961 -3.27772039 -1.04608098 0 0 Z " fill="#151E20" transform="translate(831,371)"/>
<path d="M0 0 C5.25595815 4.3003294 8.5198597 9.2355309 9.203125 16.015625 C9.49192537 29.78177577 5.44382918 43.11495134 1 56 C0.74202637 56.75716309 0.48405273 57.51432617 0.21826172 58.29443359 C-3.4053437 68.83563402 -7.58763584 78.8399596 -12.79003906 88.69482422 C-14.18946622 91.36096451 -15.55967106 94.04128795 -16.9296875 96.72265625 C-27.05008493 116.45464873 -27.05008493 116.45464873 -33 125 C-33.43280273 125.63067383 -33.86560547 126.26134766 -34.31152344 126.91113281 C-41.86904499 137.91169357 -49.53876337 148.53876337 -59 158 C-65.69585456 167.5287161 -68.43643709 181.48456269 -67 193 C-66.31350272 196.14799932 -66.31350272 196.14799932 -64 198 C-59.85767693 199.23824281 -56.38277062 198.59049191 -52.45703125 196.9140625 C-40.63652444 190.03477198 -31.00758279 178.92392467 -23 168 C-21.9954468 166.70709642 -20.98726214 165.41701068 -19.9765625 164.12890625 C-8.60802802 149.59090219 1.8726898 134.56532755 6.9453125 116.59375 C8.17365603 113.57293481 9.4489483 112.01841453 12 110 C14.74841966 109.26995103 17.21958182 109.45415103 20 110 C22.5625 111.5 22.5625 111.5 24 114 C23.62292745 119.53541041 22.40597246 124.35776578 20.453125 129.55078125 C19.93462301 130.97709216 19.41623524 132.40344459 18.89794922 133.82983398 C18.62819275 134.56273651 18.35843628 135.29563904 18.08050537 136.05075073 C13.37040426 148.87796187 8.9610212 161.64032141 6 175 C5.75894531 176.0415625 5.51789063 177.083125 5.26953125 178.15625 C3.88203751 184.78642144 3.78774273 191.24314363 4 198 C4.66 198.33 5.32 198.66 6 199 C11.61714462 196.30873906 15.76753679 192.77823976 20.125 188.375 C20.76953125 187.72474854 21.4140625 187.07449707 22.078125 186.40454102 C40.58406483 167.2250394 51.38230897 144.45017362 56.61987305 118.48120117 C57.42153054 114.6829267 58.14693884 111.72990744 61 109 C65.903343 108.2882244 67.86247241 108.24164827 72 111 C75.69889656 116.54834484 74.12653476 121.85558899 72.9375 128.0625 C70.57877196 138.53937455 67.2238268 148.7636554 64 159 C64.4125 158.26136719 64.825 157.52273438 65.25 156.76171875 C74.06225899 141.28125485 87.69970905 118.13723619 105 111 C108.55113957 110.41235591 111.92449911 110.66036814 115.375 111.75 C117.42318566 113.32552743 118.02270825 114.60915805 119 117 C120.21499435 126.80340495 117.88420735 136.66141172 116.0625 146.25 C115.64216939 148.51179053 115.22488256 150.77411224 114.80943298 153.0368042 C114.55245922 154.43104424 114.29226846 155.82469719 114.02809143 157.21759033 C112.39997015 165.91592781 111.81790099 174.34607301 111.8125 183.1875 C111.80025391 184.25419922 111.78800781 185.32089844 111.77539062 186.41992188 C111.77345703 187.45052734 111.77152344 188.48113281 111.76953125 189.54296875 C111.76542236 190.47133545 111.76131348 191.39970215 111.75708008 192.35620117 C112.02073166 195.2256313 112.80848876 197.39000895 114 200 C117.30976818 200.51917932 120.45747567 201.0120561 123.8125 200.9375 C126 201 126 201 128 203 C128.1875 205.75 128.1875 205.75 127 209 C123.07515068 212.84652638 118.87327288 215.36423815 113.3125 215.5625 C108.15701782 215.16730624 104.4639739 213.66738319 101.00390625 209.7265625 C90.84217961 195.90027557 92.88691932 178.50788814 95.23950195 162.44799805 C97.03453716 151.20305968 99.34188666 140.07075927 102 129 C81.2761656 148.44194773 67.9374392 173.86733561 54.96875 198.8984375 C54.3603125 200.06632813 53.751875 201.23421875 53.125 202.4375 C52.61195313 203.44683594 52.09890625 204.45617187 51.5703125 205.49609375 C49.94249212 208.09169789 48.64245532 209.4737095 46 211 C42.46568522 210.92480181 40.30171732 210.1609159 37.1875 208.5 C34.01707956 204.87666236 33.71460773 201.73458466 34 197 C34.75892748 193.56812039 35.78237272 190.29516083 37 187 C36.443125 187.70125 35.88625 188.4025 35.3125 189.125 C26.96500303 199.5029692 18.47725938 209.89538055 5.375 214.1875 C0.60134149 213.92229675 -3.05179794 212.72085835 -7 210 C-12.40646184 203.85046994 -13.27798417 197.35011485 -13.234375 189.40234375 C-12.76026961 182.51991388 -11.33143697 175.76021272 -10 169 C-10.53367187 169.81082031 -11.06734375 170.62164063 -11.6171875 171.45703125 C-16.22221457 178.34103947 -21.04767 184.55301193 -26.74609375 190.58203125 C-28.55208087 192.51947671 -30.1489095 194.46198677 -31.75 196.5625 C-34.68275157 200.02314685 -38.22625544 202.59588825 -41.875 205.25 C-42.45217773 205.67482666 -43.02935547 206.09965332 -43.62402344 206.53735352 C-52.65309952 212.8994378 -60.89529958 214.06570506 -71.75 212.4375 C-76.91733286 210.15194893 -80.50345575 206.9657793 -83.0703125 201.87890625 C-90.652006 180.05393419 -82.69547974 156.21734508 -77 135 C-76.66049316 133.73430176 -76.32098633 132.46860352 -75.97119141 131.16455078 C-71.03696565 113.00171416 -65.07693425 95.4904663 -58.16162109 77.98583984 C-57.2060236 75.52956465 -56.29358457 73.07020928 -55.42578125 70.58203125 C-48.23811496 50.09826155 -38.3620703 26.61411091 -24 10 C-23.34 10 -22.68 10 -22 10 C-21.7215625 9.1646875 -21.7215625 9.1646875 -21.4375 8.3125 C-18.76171902 4.00798276 -14.52935025 1.7009522 -10 -0.375 C-6.23357809 -1.15967123 -3.71798231 -1.01399517 0 0 Z " fill="#151E20" transform="translate(529,372)"/>
<path d="M0 0 C4.06219391 0.04520725 6.5258907 0.61209239 9.75 3.25 C11.75 6.25 11.75 6.25 11.53979492 8.99414062 C10.67160891 12.5731603 9.4678653 15.92907559 8.11328125 19.34375 C4.38051138 29.03523194 1.14254075 38.87362054 -2.0625 48.75 C-2.36680939 49.68487244 -2.67111877 50.61974487 -2.98464966 51.58294678 C-8.15461069 67.49657727 -12.88500629 83.48750221 -17.26074219 99.63574219 C-18.26612417 103.30890971 -19.30342173 106.97163242 -20.3515625 110.6328125 C-20.68293213 111.79409668 -21.01430176 112.95538086 -21.35571289 114.15185547 C-21.97411085 116.31585384 -22.59548746 118.47900422 -23.22045898 120.64111328 C-23.48930908 121.58970215 -23.75815918 122.53829102 -24.03515625 123.515625 C-24.38912476 124.74974121 -24.38912476 124.74974121 -24.75024414 126.00878906 C-25.39509308 128.51797713 -25.39509308 128.51797713 -25.25 132.25 C-24.49976563 131.56035156 -23.74953125 130.87070312 -22.9765625 130.16015625 C-15.59330768 123.37902152 -8.18092773 116.63221169 -0.6875 109.97265625 C3.9654801 105.82327613 8.45535485 101.58335947 12.828125 97.140625 C14.69973642 95.29944628 16.630918 93.58193419 18.625 91.875 C22.65438446 88.41446982 26.35854878 84.67905801 30.0625 80.875 C32.83054109 78.17133196 35.70838836 75.64877297 38.63085938 73.11523438 C42.1710389 69.99922383 45.57975208 66.74639059 49 63.5 C53.88544888 58.88126107 58.78147431 54.279319 63.75 49.75 C69.34843189 44.64306282 74.86299647 39.45026704 80.3737793 34.24902344 C85.42950244 29.48117268 90.51553406 24.74841272 95.64038086 20.05493164 C97.80459261 18.06864945 99.91673689 16.07525262 101.9453125 13.94921875 C103.75 12.25 103.75 12.25 106.3125 11.8125 C108.75 12.25 108.75 12.25 110.625 13.375 C112.32343227 16.20572044 111.46656715 18.09250627 110.75 21.25 C107.90527091 28.08128715 104.08133861 33.40210747 98.6875 38.41796875 C96.8787464 40.12826197 95.32177741 41.88621844 93.75 43.8125 C91.64840203 46.32761994 89.44174366 48.44846393 86.9375 50.5625 C82.96411301 53.93041849 79.60065004 57.67077841 76.21875 61.625 C73.57931166 64.4314914 70.77593893 66.90391321 67.85986328 69.41601562 C64.47346106 72.35962283 61.20705689 75.42787622 57.9375 78.5 C57.24897949 79.14461182 56.56045898 79.78922363 55.85107422 80.45336914 C50.6968376 85.30099168 45.69841226 90.27634558 40.7890625 95.37109375 C38.75 97.25 38.75 97.25 36.75 97.25 C36.75 97.91 36.75 98.57 36.75 99.25 C35.10546875 100.87109375 35.10546875 100.87109375 32.9375 102.6875 C29.92536735 105.22339332 29.92536735 105.22339332 27.11328125 107.97265625 C25.75 109.25 25.75 109.25 23.75 109.25 C23.75 109.91 23.75 110.57 23.75 111.25 C22.10546875 112.94140625 22.10546875 112.94140625 19.9375 114.8125 C19.22980469 115.43253906 18.52210937 116.05257812 17.79296875 116.69140625 C15.75 118.25 15.75 118.25 12.75 119.25 C12.75 119.91 12.75 120.57 12.75 121.25 C11.21804728 122.62212301 9.62078919 123.9215446 8 125.1875 C2.61233974 129.48372457 -2.41975594 134.03668604 -7.42578125 138.76953125 C-10.26071009 141.25940651 -13.07116996 143.23564536 -16.25 145.25 C-9.58885796 169.60006737 4.81285758 191.90139259 20.75 211.25 C21.21567383 211.82105469 21.68134766 212.39210938 22.16113281 212.98046875 C23.61964521 214.76513821 25.08822391 216.54083668 26.5625 218.3125 C27.00682373 218.8494751 27.45114746 219.3864502 27.90893555 219.93969727 C29.91427449 222.30786036 31.89737011 224.36785136 34.32421875 226.30859375 C36.75 228.25 36.75 228.25 38.6796875 230.69140625 C41.0894588 233.66951984 43.83291045 235.90224044 46.875 238.1875 C47.73605347 238.83936279 47.73605347 238.83936279 48.61450195 239.50439453 C60.57330939 248.43651839 71.48894577 253.37458752 86.30859375 254.85546875 C89.75 255.25 89.75 255.25 92.75 256.25 C93.08 258.23 93.41 260.21 93.75 262.25 C88.83238044 266.28717239 83.42397631 265.78734512 77.375 265.75 C76.29879395 265.74355469 75.22258789 265.73710938 74.11376953 265.73046875 C54.19461812 265.27619853 38.74911073 255.80398797 24.75 242.25 C23.36260768 241.03198412 21.96750107 239.82266111 20.5625 238.625 C-2.15662913 218.76885055 -22.66078623 189.0176413 -32.25 160.25 C-34.47500614 166.51618086 -36.17474958 172.77582092 -37.58984375 179.26953125 C-37.79807266 180.20818527 -38.00630157 181.14683929 -38.22084045 182.11393738 C-38.65916745 184.09425903 -39.09520279 186.07508918 -39.52905273 188.05639648 C-40.17759605 191.01728409 -40.83324944 193.97652226 -41.49023438 196.93554688 C-43.56208577 206.30079252 -45.58209648 215.67696684 -47.50390625 225.07421875 C-47.74825661 226.24510796 -47.74825661 226.24510796 -47.99754333 227.43965149 C-48.97940889 232.31697154 -49.57381344 237.12163416 -49.92173767 242.08601379 C-50.42501259 245.40372612 -51.74347142 247.09160039 -54.25 249.25 C-55.90452314 249.63915559 -57.57182998 249.98049256 -59.25 250.25 C-60.20866579 217.14547575 -61.04298886 185.59013931 -51.48193359 153.54101562 C-50.09574135 148.82623627 -48.95916338 144.06145802 -47.83984375 139.27734375 C-47.63488785 138.40249832 -47.42993195 137.52765289 -47.21876526 136.626297 C-47.00888474 135.73037338 -46.79900421 134.83444977 -46.58276367 133.91137695 C-38.04056951 97.44752166 -29.08580043 61.1124873 -16.5 25.8125 C-16.08778198 24.64750977 -16.08778198 24.64750977 -15.66723633 23.45898438 C-7.37298283 0.1464831 -7.37298283 0.1464831 0 0 Z " fill="#151E21" transform="translate(59.25,359.75)"/>
<path d="M0 0 C3.79378127 3.03502502 5.59082852 6.04280609 6.2578125 10.86328125 C7.17786677 27.63893752 -3.44310567 43.01461501 -14 55 C-14.76054687 55.928125 -15.52109375 56.85625 -16.3046875 57.8125 C-23.80013281 66.65958299 -34.41975862 75.78870511 -46.37890625 77.30078125 C-51.10629126 77.32615183 -54.14356719 77.03840161 -58 74 C-60.84623505 71.15376495 -60.78459417 68.6923335 -61.08203125 64.76953125 C-60.67940617 51.17614175 -48.45940651 37.70514103 -40 28 C-39.2678125 27.15695312 -38.535625 26.31390625 -37.78125 25.4453125 C-35.55523948 22.92929357 -33.29062215 20.45728333 -31 18 C-29.81083984 16.71222656 -29.81083984 16.71222656 -28.59765625 15.3984375 C-22.1633057 8.66930628 -10.29646224 -3.69616593 0 0 Z " fill="#FCFBF8" transform="translate(410,495)"/>
<path d="M0 0 C0.99 0.33 1.98 0.66 3 1 C3.33409371 8.25823471 2.51072957 14.62173765 0.625 21.625 C0.36243408 22.61209961 0.09986816 23.59919922 -0.1706543 24.61621094 C-3.4006315 36.17881782 -8.08453212 47.07035764 -13 58 C-13.36996094 58.84014648 -13.73992187 59.68029297 -14.12109375 60.54589844 C-23.08044217 80.83570489 -34.79702017 99.31356122 -47.9375 117.125 C-48.43056641 117.7953125 -48.92363281 118.465625 -49.43164062 119.15625 C-50.62006815 120.77158838 -51.80987759 122.38590994 -53 124 C-54.25172068 120.24483797 -53.5700159 118.75467149 -52.4453125 114.98828125 C-52.08219971 113.76705566 -51.71908691 112.54583008 -51.3449707 111.28759766 C-50.93915484 109.96230728 -50.53247781 108.63728033 -50.125 107.3125 C-49.9219223 106.64305359 -49.7188446 105.97360718 -49.50961304 105.28387451 C-45.82845798 93.16623505 -41.58327746 81.31512067 -36.96972656 69.52001953 C-36.116997 67.30403903 -35.30634822 65.08121474 -34.5234375 62.83984375 C-26.68428992 40.50212007 -15.82710763 17.78798822 0 0 Z " fill="#FAFAF7" transform="translate(524,389)"/>
<path d="M0 0 C1 1 1 1 1.21875 4.12109375 C0.08105468 24.29486974 -18.64419488 46.54199193 -31 61 C-31.7425 61.88945313 -32.485 62.77890625 -33.25 63.6953125 C-37.93525671 69.14517707 -42.66951732 73.52388674 -49 77 C-49.33 77 -49.66 77 -50 77 C-50.39598755 69.31032503 -49.59002047 63.049828 -47 55.8125 C-46.68458252 54.90540283 -46.36916504 53.99830566 -46.04418945 53.0637207 C-43.03674281 44.66371307 -39.39410333 36.75830827 -35 29 C-34.61440918 28.31534668 -34.22881836 27.63069336 -33.83154297 26.92529297 C-27.72690423 16.25017843 -20.65053044 4.59164332 -8.890625 -0.5234375 C-5.73213706 -1.31958529 -3.0964499 -0.82150712 0 0 Z " fill="#FBFAF7" transform="translate(285,493)"/>
<path d="M0 0 C4.7632312 4.51253482 4.7632312 4.51253482 6.0625 7.1875 C7.29722555 9.57463606 8.59409887 9.87318555 11 11 C11.85078125 11.495 11.85078125 11.495 12.71875 12 C18.54238716 15.26941033 24.42824817 16.1675781 31 17 C29.29519512 28.45545719 20.33203915 38.42333803 12 46 C7.64661641 49.03986268 3.97569272 50.9634131 -1.375 51.0625 C-5.06942827 49.56713618 -7.22009885 47.5598023 -9 44 C-10.38631971 28.72775661 -6.56261182 13.71693454 0 0 Z " fill="#FBFBF7" transform="translate(151,524)"/>
<path d="M0 0 C4.10739354 3.39544533 6.3501408 6.68429779 7 12 C7.15846066 15.08479949 7.18508336 18.16153757 7.1875 21.25 C7.19974609 22.05824219 7.21199219 22.86648438 7.22460938 23.69921875 C7.23823225 29.37541732 6.45318374 34.51659845 5 40 C-2.08183583 40.64795039 -6.31091667 39.98871098 -12.0859375 35.65234375 C-16.48612188 31.85381723 -18.54871027 28.73608713 -19.23828125 23.02734375 C-19.48496527 16.08124113 -18.13118217 8.62642016 -13.46875 3.2265625 C-8.74669511 -0.77792523 -6.02711914 -1.60723177 0 0 Z " fill="#FCFBF8" transform="translate(181,488)"/>
<path d="M0 0 C-0.5739997 12.05399378 -6.44836228 19.76255983 -15 28 C-21.16638031 33.20604239 -30.61969903 40 -39 40 C-37.50254329 35.66951709 -35.22341355 32.12622543 -32.5625 28.4375 C-32.12365479 27.8283374 -31.68480957 27.2191748 -31.23266602 26.59155273 C-11.7041169 0 -11.7041169 0 0 0 Z " fill="#FAFAF7" transform="translate(997,488)"/>
<path d="M0 0 C0.85464844 -0.01675781 1.70929687 -0.03351563 2.58984375 -0.05078125 C5.61345528 0.39344604 6.94783013 1.11092589 9.0625 3.3125 C10.07124154 7.92729398 9.40026942 12.33474642 7.875 16.75 C5.78732511 19.70154036 4.40934149 20.94333757 1.0625 22.3125 C-2.99770948 22.81112222 -5.01559067 23.01606238 -8.3125 20.5 C-11.24576443 16.55137481 -11.26260968 13.10786773 -10.9375 8.3125 C-8.6182645 2.45919136 -6.39906708 0.02886797 0 0 Z " fill="#171F21" transform="translate(556.9375,443.6875)"/>
<path d="M0 0 C3.125 1.875 3.125 1.875 5 5 C5.4112816 10.45395159 4.598593 15.73500089 1 20 C-2.41432495 22.56074371 -5.85540605 22.44406364 -10 22 C-12.36497439 20.13291495 -13.66030715 18.67938569 -15 16 C-15.53118252 11.08003072 -15.75105553 7.22672403 -13.125 2.9375 C-9.14019626 -0.69570341 -5.20670732 -0.75277696 0 0 Z " fill="#151D1F" transform="translate(903,445)"/>
<path d="M0 0 C1.10840487 3.32521462 0.92934094 3.9870331 -0.1171875 7.18359375 C-0.38909912 8.01745605 -0.66101074 8.85131836 -0.94116211 9.71044922 C-1.24932861 10.61037598 -1.55749512 11.51030273 -1.875 12.4375 C-2.35755249 13.85313232 -2.35755249 13.85313232 -2.84985352 15.29736328 C-8.35650778 31.07090654 -15.8364146 45.84431226 -23.4375 60.6875 C-23.7963327 61.39114685 -24.15516541 62.0947937 -24.52487183 62.81976318 C-25.55016922 64.82483222 -26.58401124 66.8252247 -27.62109375 68.82421875 C-28.2236499 69.99041748 -28.82620605 71.15661621 -29.44702148 72.3581543 C-31 75 -31 75 -33 76 C-30.94697393 67.68983453 -28.16824063 59.82075522 -25 51.875 C-24.52014648 50.66593994 -24.04029297 49.45687988 -23.54589844 48.21118164 C-20.23120293 39.90387367 -16.80239791 31.64618351 -13.25 23.4375 C-12.8271875 22.44669434 -12.404375 21.45588867 -11.96875 20.43505859 C-5.3168337 5.3168337 -5.3168337 5.3168337 0 0 Z " fill="#F5F5F4" transform="translate(824,389)"/>
<path d="M0 0 C0.66 0.33 1.32 0.66 2 1 C2 1.66 2 2.32 2 3 C2.66 3.33 3.32 3.66 4 4 C2.56717148 6.27390187 1.12899467 8.54410141 -0.3125 10.8125 C-0.71662109 11.45509766 -1.12074219 12.09769531 -1.53710938 12.75976562 C-1.93349609 13.38173828 -2.32988281 14.00371094 -2.73828125 14.64453125 C-3.09962158 15.21534424 -3.46096191 15.78615723 -3.83325195 16.37426758 C-5.07691062 18.10716631 -6.45556212 19.53326969 -8 21 C-3.4516129 3.4516129 -3.4516129 3.4516129 0 0 Z " fill="#F1F1F0" transform="translate(600,511)"/>
<path d="M0 0 C-0.33 0.99 -0.66 1.98 -1 3 C-7.41728904 5.65061939 -15.24793081 6.34371624 -21.8359375 3.984375 C-22.55007813 3.65953125 -23.26421875 3.3346875 -24 3 C-20.5836981 1.96025594 -17.43573988 1.86625125 -13.875 1.875 C-12.82054687 1.87242187 -11.76609375 1.86984375 -10.6796875 1.8671875 C-8 2 -8 2 -6 3 C-6 2.34 -6 1.68 -6 1 C-3.92446352 0.4465236 -2.15634036 0 0 0 Z " fill="#1E2425" transform="translate(376,580)"/>
<path d="M0 0 C2 2 2 2 2.23046875 4.9765625 C2.15483691 11.39839322 2.0154884 17.65319749 1 24 C0.67 24 0.34 24 0 24 C-1.21611807 19.25134847 -1.14816693 14.61505567 -1.125 9.75 C-1.12886719 8.92242187 -1.13273438 8.09484375 -1.13671875 7.2421875 C-1.12669335 1.12669335 -1.12669335 1.12669335 0 0 Z " fill="#1E2324" transform="translate(199,499)"/>
<path d="M0 0 C0.66 0.33 1.32 0.66 2 1 C1.42334609 5.7871428 -0.64082996 9.25128824 -3.0625 13.3125 C-3.62807617 14.28026367 -3.62807617 14.28026367 -4.20507812 15.26757812 C-5.13037493 16.84878152 -6.06432681 18.4249146 -7 20 C-8 18 -8 18 -6.85546875 14.375 C-6.30746184 12.91364824 -5.75109074 11.45541266 -5.1875 10 C-4.91357422 9.26265625 -4.63964844 8.5253125 -4.35742188 7.765625 C-2.26431333 2.26431333 -2.26431333 2.26431333 0 0 Z " fill="#F4F4F4" transform="translate(799,445)"/>
<path d="M0 0 C1.66674321 2.91824244 2.2432008 4.97594379 2.1953125 8.328125 C2.18886719 9.12734375 2.18242187 9.9265625 2.17578125 10.75 C2.15902344 11.575 2.14226562 12.4 2.125 13.25 C2.11597656 14.09046875 2.10695313 14.9309375 2.09765625 15.796875 C2.07415817 17.86470604 2.03828908 19.93238995 2 22 C1.34 22.33 0.68 22.66 0 23 C-0.79773542 15.16992004 -1.14500285 7.80363479 0 0 Z " fill="#212627" transform="translate(444,540)"/>
<path d="M0 0 C0.33 0 0.66 0 1 0 C0.67 5.94 0.34 11.88 0 18 C-0.33 18 -0.66 18 -1 18 C-1.12375 17.0925 -1.2475 16.185 -1.375 15.25 C-1.79968256 12.08850419 -1.79968256 12.08850419 -3.1875 9.9375 C-4 8 -4 8 -3.25 5.4375 C-2 3 -2 3 0 0 Z M-6 9 C-6 12 -6 12 -6 12 Z " fill="#DBDCDC" transform="translate(860,550)"/>
<path d="M0 0 C1.23922223 3.71766668 0.57018942 5.43889537 -0.4375 9.1875 C-0.72496094 10.27417969 -1.01242187 11.36085938 -1.30859375 12.48046875 C-1.65083984 13.72763672 -1.65083984 13.72763672 -2 15 C-2.99 15 -3.98 15 -5 15 C-6.2109375 12.83203125 -6.2109375 12.83203125 -7 10 C-5.6640625 7.32421875 -5.6640625 7.32421875 -3.625 4.6875 C-2.62339844 3.36298828 -2.62339844 3.36298828 -1.6015625 2.01171875 C-1.07304688 1.34785156 -0.54453125 0.68398438 0 0 Z " fill="#F1F1F0" transform="translate(921,542)"/>
<path d="M0 0 C0.66 0.66 1.32 1.32 2 2 C-0.76452033 3.38226016 -3.0461363 3.09525387 -6.125 3.0625 C-7.22070312 3.05347656 -8.31640625 3.04445313 -9.4453125 3.03515625 C-10.70988281 3.01775391 -10.70988281 3.01775391 -12 3 C-12 3.66 -12 4.32 -12 5 C-13.32 4.34 -14.64 3.68 -16 3 C-5.05945946 -0.63243243 -5.05945946 -0.63243243 0 0 Z " fill="#212627" transform="translate(412,479)"/>
<path d="M0 0 C0.66 0.33 1.32 0.66 2 1 C2 4.96 2 8.92 2 13 C1.01 13.495 1.01 13.495 0 14 C-1.24377393 11.51245214 -1.13306235 9.77344699 -1.125 7 C-1.12757813 6.113125 -1.13015625 5.22625 -1.1328125 4.3125 C-1 2 -1 2 0 0 Z " fill="#212728" transform="translate(218,558)"/>
<path d="M0 0 C1.1796875 1.671875 1.1796875 1.671875 2 4 C0.8828125 6.578125 0.8828125 6.578125 -0.875 9.25 C-1.73738281 10.58804688 -1.73738281 10.58804688 -2.6171875 11.953125 C-3.07351563 12.62859375 -3.52984375 13.3040625 -4 14 C-5 12 -5 12 -4.51171875 9.94140625 C-4.10373047 8.76384766 -4.10373047 8.76384766 -3.6875 7.5625 C-3.42324219 6.78003906 -3.15898438 5.99757813 -2.88671875 5.19140625 C-2 3 -2 3 0 0 Z " fill="#EDEEED" transform="translate(774,534)"/>
<path d="M0 0 C6.4 0.49230769 6.4 0.49230769 9.4375 3.0625 C10.2109375 4.0215625 10.2109375 4.0215625 11 5 C9.948125 4.67 8.89625 4.34 7.8125 4 C4.61126643 3.16033218 2.2588992 2.80249096 -1 3 C-0.67 2.01 -0.34 1.02 0 0 Z " fill="#1F2426" transform="translate(522,371)"/>
<path d="M0 0 C0.66 0.33 1.32 0.66 2 1 C1.67 3.31 1.34 5.62 1 8 C0.34 8 -0.32 8 -1 8 C-1.33 9.98 -1.66 11.96 -2 14 C-2.33 14 -2.66 14 -3 14 C-2.48594831 9.03083364 -1.76615118 4.70973649 0 0 Z " fill="#131719" transform="translate(459,484)"/>
<path d="M0 0 C0.66 0.33 1.32 0.66 2 1 C1.34 4.63 0.68 8.26 0 12 C-0.66 12 -1.32 12 -2 12 C-1.85831863 10.56208484 -1.71148957 9.1246763 -1.5625 7.6875 C-1.48128906 6.88699219 -1.40007812 6.08648438 -1.31640625 5.26171875 C-1 3 -1 3 0 0 Z " fill="#0F1516" transform="translate(305,646)"/>
<path d="M0 0 C1 3 1 3 0.00390625 5.26171875 C-0.47175781 6.06222656 -0.94742188 6.86273438 -1.4375 7.6875 C-1.91058594 8.49574219 -2.38367188 9.30398438 -2.87109375 10.13671875 C-3.24363281 10.75160156 -3.61617187 11.36648438 -4 12 C-5 10 -5 10 -4.51171875 7.87109375 C-4.23972656 7.06800781 -3.96773437 6.26492188 -3.6875 5.4375 C-3.42324219 4.63183594 -3.15898438 3.82617188 -2.88671875 2.99609375 C-2 1 -2 1 0 0 Z " fill="#E1E3E2" transform="translate(796,453)"/>
<path d="M0 0 C2.375 -0.125 2.375 -0.125 5 0 C5.66 0.66 6.32 1.32 7 2 C6.625 4.125 6.625 4.125 6 6 C5.34 6 4.68 6 4 6 C3.67 4.68 3.34 3.36 3 2 C1.68 2.33 0.36 2.66 -1 3 C-0.67 2.01 -0.34 1.02 0 0 Z " fill="#1D2326" transform="translate(650,573)"/>
<path d="M0 0 C2.67927341 4.01891012 2.15601248 6.24161923 2 11 C1.01 10.67 0.02 10.34 -1 10 C-0.67 6.7 -0.34 3.4 0 0 Z " fill="#22282A" transform="translate(564,565)"/>
<path d="M0 0 C0.99 0 1.98 0 3 0 C2.34 1.98 1.68 3.96 1 6 C0.34 6 -0.32 6 -1 6 C-1.33 6.99 -1.66 7.98 -2 9 C-2.33 8.34 -2.66 7.68 -3 7 C-2.06421005 4.64018187 -1.06652192 2.30368736 0 0 Z " fill="#F4F4F2" transform="translate(823,425)"/>
<path d="M0 0 C2.97 0 5.94 0 9 0 C6.23776722 2.76223278 3.79293383 2.57856291 0 3 C0 2.01 0 1.02 0 0 Z " fill="#26292B" transform="translate(874,584)"/>
<path d="M0 0 C1.32 0 2.64 0 4 0 C4 1.65 4 3.3 4 5 C3.34 5 2.68 5 2 5 C2 4.01 2 3.02 2 2 C0.02 2.99 0.02 2.99 -2 4 C-1.34 2.68 -0.68 1.36 0 0 Z " fill="#0F1618" transform="translate(817,500)"/>
<path d="M0 0 C0.66 0.33 1.32 0.66 2 1 C0.35 2.98 -1.3 4.96 -3 7 C-3.66 6.67 -4.32 6.34 -5 6 C-5 5.34 -5 4.68 -5 4 C-3.37373596 2.61767557 -1.7074998 1.28062485 0 0 Z " fill="#0D1214" transform="translate(52,476)"/>
<path d="M0 0 C0.33 0.66 0.66 1.32 1 2 C0.06553465 4.03144641 -0.93224776 6.03533587 -2 8 C-2.99 7.34 -3.98 6.68 -5 6 C-3.35 4.02 -1.7 2.04 0 0 Z " fill="#F5F6F5" transform="translate(566,558)"/>
</svg>
