<svg xmlns="http://www.w3.org/2000/svg" viewBox="0 0 600 200" fill="none">
  <path 
    d="M30.5,76.2c0,0,9.8-42.2,19.7-35.6c9.8,6.7,5.7,23.7,0.8,34.8c-4.9,11.1-14.8,27.4-14.8,27.4
    s-6.6,10.4-3.3,11.9c3.3,1.5,9.8-4.4,16.4-11.9c6.6-7.4,18-29.6,18-29.6s7.4-17.8,13.9-13.3c6.6,4.4,0,14.8-4.9,24.4
    c-4.9,9.6-13.1,21.5-13.1,21.5s-4.1,5.9-0.8,6.7c3.3,0.7,9.8-5.9,14.8-11.9c4.9-5.9,13.9-17.8,13.9-17.8s6.6-8.9,11.5-5.9
    c4.9,3,1.6,8.9-1.6,14.8c-3.3,5.9-9.8,16.3-9.8,16.3s-3.3,5.9,0,5.9c3.3,0,9.8-5.9,14.8-11.9c4.9-5.9,13.1-14.8,13.1-14.8
    s8.2-8.9,13.1-5.9c4.9,3,1.6,8.9-1.6,14.8c-3.3,5.9-8.2,13.3-8.2,13.3s-3.3,5.9,0,5.9c3.3,0,8.2-4.4,13.1-10.4
    c4.9-5.9,13.9-17.8,13.9-17.8s4.9-8.1,9.8-5.2c4.9,3,0,11.9-4.9,20.7c-4.9,8.9-11.5,17.8-11.5,17.8s-4.9,5.9-0.8,7.4
    c4.1,1.5,11.5-5.9,17.2-13.3c5.7-7.4,13.9-20.7,13.9-20.7s4.9-8.9,9.8-5.9c4.9,3,0,11.9-4.9,20.7c-4.9,8.9-9.8,17.8-9.8,17.8
    s-3.3,5.9,0.8,5.9c4.1,0,9.8-5.9,14.8-11.9c4.9-5.9,13.1-17.8,13.1-17.8s4.9-8.9,9.8-5.9c4.9,3,0,11.9-4.9,20.7
    c-4.9,8.9-9.8,17.8-9.8,17.8s-3.3,5.9,0.8,5.9c4.1,0,9.8-5.9,14.8-11.9c4.9-5.9,13.1-17.8,13.1-17.8s4.9-8.9,9.8-5.9
    c4.9,3,0,11.9-4.9,20.7c-4.9,8.9-9.8,17.8-9.8,17.8s-3.3,5.9,0.8,5.9c4.1,0,9.8-5.9,14.8-11.9c4.9-5.9,11.5-16.3,11.5-16.3
    s3.3-5.9,8.2-2.2c4.9,3.7,0,11.9-4.9,20.7c-4.9,8.9-9.8,17.8-9.8,17.8s-3.3,5.9,0.8,5.9c4.1,0,9.8-5.9,14.8-11.9
    c4.9-5.9,13.1-17.8,13.1-17.8s4.9-8.9,9.8-5.9c4.9,3,0,11.9-4.9,20.7c-4.9,8.9-9.8,17.8-9.8,17.8s-3.3,5.9,0.8,5.9
    c4.1,0,9.8-5.9,14.8-11.9c4.9-5.9,11.5-16.3,11.5-16.3s3.3-5.9,8.2-2.2c4.9,3.7,0,11.9-4.9,20.7c-4.9,8.9-9.8,17.8-9.8,17.8
    s-3.3,5.9,0.8,5.9c4.1,0,9.8-5.9,14.8-11.9c4.9-5.9,13.1-17.8,13.1-17.8"
    stroke="currentColor" 
    stroke-width="4" 
    stroke-linecap="round" 
    stroke-linejoin="round"
    style="stroke-dasharray: 2000; stroke-dashoffset: 0;"
  />
  <circle cx="498" cy="77" r="4" fill="currentColor" />
  <circle cx="545" cy="77" r="4" fill="currentColor" />
</svg>
